<?xml version="1.0" encoding="iso-8859-1"?>
<!-- Generator: Adobe Illustrator 19.0.0, SVG Export Plug-In . SVG Version: 6.00 Build 0)  -->
<svg version="1.1" id="Capa_1" xmlns="http://www.w3.org/2000/svg" xmlns:xlink="http://www.w3.org/1999/xlink" x="0px" y="0px"
	 viewBox="0 0 480 480" style="enable-background:new 0 0 480 480;" xml:space="preserve">
<linearGradient id="SVGID_1_" gradientUnits="userSpaceOnUse" x1="-56.875" y1="587.625" x2="3.295" y2="587.625" gradientTransform="matrix(8 0 0 -8 455 4941)">
	<stop  offset="0" style="stop-color:#4761AC"/>
	<stop  offset="1" style="stop-color:#54C2EF"/>
</linearGradient>
<path style="fill:url(#SVGID_1_);" d="M472,40h-56V8c0-4.418-3.582-8-8-8h-32c-4.418,0-8,3.582-8,8v32h-80V8c0-4.418-3.582-8-8-8
	h-32c-4.418,0-8,3.582-8,8v32h-80V8c0-4.418-3.582-8-8-8h-32c-4.418,0-8,3.582-8,8v32H56c-4.418,0-8,3.582-8,8v64H8
	c-4.418,0-8,3.582-8,8v352c0,4.418,3.582,8,8,8h368c4.418,0,8-3.582,8-8v-40h88c4.418,0,8-3.582,8-8V48
	C480,43.582,476.418,40,472,40z M384,16h16v56h-16V16z M256,16h16v56h-16V16z M128,16h16v56h-16V16z M64,56h48v24
	c0,4.418,3.582,8,8,8h32c4.418,0,8-3.582,8-8V56h80v24c0,4.418,3.582,8,8,8h32c4.418,0,8-3.582,8-8V56h80v24c0,4.418,3.582,8,8,8h32
	c4.418,0,8-3.582,8-8V56h48v56H64V56z M16,128h32v56H16V128z M368,464H16V200h32v224c0,4.418,3.582,8,8,8h312V464z M464,416H64V128
	h400V416z"/>
<g>
	
		<linearGradient id="SVGID_2_" gradientUnits="userSpaceOnUse" x1="-56.875" y1="593.625" x2="3.295" y2="593.625" gradientTransform="matrix(8 0 0 -8 455 4941)">
		<stop  offset="0" style="stop-color:#4761AC"/>
		<stop  offset="1" style="stop-color:#54C2EF"/>
	</linearGradient>
	<path style="fill:url(#SVGID_2_);" d="M88,224h64c4.418,0,8-3.582,8-8v-48c0-4.418-3.582-8-8-8H88c-4.418,0-8,3.582-8,8v48
		C80,220.418,83.582,224,88,224z M96,176h48v32H96V176z"/>
	
		<linearGradient id="SVGID_3_" gradientUnits="userSpaceOnUse" x1="-56.875" y1="593.625" x2="3.295" y2="593.625" gradientTransform="matrix(8 0 0 -8 455 4941)">
		<stop  offset="0" style="stop-color:#4761AC"/>
		<stop  offset="1" style="stop-color:#54C2EF"/>
	</linearGradient>
	<path style="fill:url(#SVGID_3_);" d="M184,224h64c4.418,0,8-3.582,8-8v-48c0-4.418-3.582-8-8-8h-64c-4.418,0-8,3.582-8,8v48
		C176,220.418,179.582,224,184,224z M192,176h48v32h-48V176z"/>
	
		<linearGradient id="SVGID_4_" gradientUnits="userSpaceOnUse" x1="-56.875" y1="593.625" x2="3.295" y2="593.625" gradientTransform="matrix(8 0 0 -8 455 4941)">
		<stop  offset="0" style="stop-color:#4761AC"/>
		<stop  offset="1" style="stop-color:#54C2EF"/>
	</linearGradient>
	<path style="fill:url(#SVGID_4_);" d="M280,224h64c4.418,0,8-3.582,8-8v-48c0-4.418-3.582-8-8-8h-64c-4.418,0-8,3.582-8,8v48
		C272,220.418,275.582,224,280,224z M288,176h48v32h-48V176z"/>
	
		<linearGradient id="SVGID_5_" gradientUnits="userSpaceOnUse" x1="-56.875" y1="593.625" x2="3.295" y2="593.625" gradientTransform="matrix(8 0 0 -8 455 4941)">
		<stop  offset="0" style="stop-color:#4761AC"/>
		<stop  offset="1" style="stop-color:#54C2EF"/>
	</linearGradient>
	<path style="fill:url(#SVGID_5_);" d="M376,224h64c4.418,0,8-3.582,8-8v-48c0-4.418-3.582-8-8-8h-64c-4.418,0-8,3.582-8,8v48
		C368,220.418,371.582,224,376,224z M384,176h48v32h-48V176z"/>
</g>
<g>
	
		<linearGradient id="SVGID_6_" gradientUnits="userSpaceOnUse" x1="-56.875" y1="583.625" x2="3.295" y2="583.625" gradientTransform="matrix(8 0 0 -8 455 4941)">
		<stop  offset="0" style="stop-color:#4761AC"/>
		<stop  offset="1" style="stop-color:#54C2EF"/>
	</linearGradient>
	<path style="fill:url(#SVGID_6_);" d="M184,304h64c4.418,0,8-3.582,8-8v-48c0-4.418-3.582-8-8-8h-64c-4.418,0-8,3.582-8,8v48
		C176,300.418,179.582,304,184,304z M192,256h48v32h-48V256z"/>
	
		<linearGradient id="SVGID_7_" gradientUnits="userSpaceOnUse" x1="-56.875" y1="583.625" x2="3.295" y2="583.625" gradientTransform="matrix(8 0 0 -8 455 4941)">
		<stop  offset="0" style="stop-color:#4761AC"/>
		<stop  offset="1" style="stop-color:#54C2EF"/>
	</linearGradient>
	<path style="fill:url(#SVGID_7_);" d="M280,304h64c4.418,0,8-3.582,8-8v-48c0-4.418-3.582-8-8-8h-64c-4.418,0-8,3.582-8,8v48
		C272,300.418,275.582,304,280,304z M288,256h48v32h-48V256z"/>
	
		<linearGradient id="SVGID_8_" gradientUnits="userSpaceOnUse" x1="-56.875" y1="583.625" x2="3.295" y2="583.625" gradientTransform="matrix(8 0 0 -8 455 4941)">
		<stop  offset="0" style="stop-color:#4761AC"/>
		<stop  offset="1" style="stop-color:#54C2EF"/>
	</linearGradient>
	<path style="fill:url(#SVGID_8_);" d="M376,304h64c4.418,0,8-3.582,8-8v-48c0-4.418-3.582-8-8-8h-64c-4.418,0-8,3.582-8,8v48
		C368,300.418,371.582,304,376,304z M384,256h48v32h-48V256z"/>
	
		<linearGradient id="SVGID_9_" gradientUnits="userSpaceOnUse" x1="-56.875" y1="573.625" x2="3.295" y2="573.625" gradientTransform="matrix(8 0 0 -8 455 4941)">
		<stop  offset="0" style="stop-color:#4761AC"/>
		<stop  offset="1" style="stop-color:#54C2EF"/>
	</linearGradient>
	<path style="fill:url(#SVGID_9_);" d="M88,384h64c4.418,0,8-3.582,8-8v-48c0-4.418-3.582-8-8-8H88c-4.418,0-8,3.582-8,8v48
		C80,380.418,83.582,384,88,384z M96,336h48v32H96V336z"/>
	
		<linearGradient id="SVGID_10_" gradientUnits="userSpaceOnUse" x1="-56.875" y1="573.625" x2="3.295" y2="573.625" gradientTransform="matrix(8 0 0 -8 455 4941)">
		<stop  offset="0" style="stop-color:#4761AC"/>
		<stop  offset="1" style="stop-color:#54C2EF"/>
	</linearGradient>
	<path style="fill:url(#SVGID_10_);" d="M184,384h64c4.418,0,8-3.582,8-8v-48c0-4.418-3.582-8-8-8h-64c-4.418,0-8,3.582-8,8v48
		C176,380.418,179.582,384,184,384z M192,336h48v32h-48V336z"/>
	
		<linearGradient id="SVGID_11_" gradientUnits="userSpaceOnUse" x1="-56.875" y1="573.625" x2="3.295" y2="573.625" gradientTransform="matrix(8 0 0 -8 455 4941)">
		<stop  offset="0" style="stop-color:#4761AC"/>
		<stop  offset="1" style="stop-color:#54C2EF"/>
	</linearGradient>
	<path style="fill:url(#SVGID_11_);" d="M280,384h64c4.418,0,8-3.582,8-8v-48c0-4.418-3.582-8-8-8h-64c-4.418,0-8,3.582-8,8v48
		C272,380.418,275.582,384,280,384z M288,336h48v32h-48V336z"/>
	
		<linearGradient id="SVGID_12_" gradientUnits="userSpaceOnUse" x1="-56.875" y1="573.625" x2="3.295" y2="573.625" gradientTransform="matrix(8 0 0 -8 455 4941)">
		<stop  offset="0" style="stop-color:#4761AC"/>
		<stop  offset="1" style="stop-color:#54C2EF"/>
	</linearGradient>
	<path style="fill:url(#SVGID_12_);" d="M376,384h64c4.418,0,8-3.582,8-8v-48c0-4.418-3.582-8-8-8h-64c-4.418,0-8,3.582-8,8v48
		C368,380.418,371.582,384,376,384z M384,336h48v32h-48V336z"/>
	
		<linearGradient id="SVGID_13_" gradientUnits="userSpaceOnUse" x1="-56.875" y1="583.625" x2="3.295" y2="583.625" gradientTransform="matrix(8 0 0 -8 455 4941)">
		<stop  offset="0" style="stop-color:#4761AC"/>
		<stop  offset="1" style="stop-color:#54C2EF"/>
	</linearGradient>
	<path style="fill:url(#SVGID_13_);" d="M128,248c0-4.418-3.582-8-8-8s-8,3.582-8,8c0,8.837-7.163,16-16,16c-4.418,0-8,3.582-8,8
		s3.582,8,8,8c8.837,0,16,7.163,16,16c0,4.418,3.582,8,8,8s8-3.582,8-8c0-8.837,7.163-16,16-16c4.418,0,8-3.582,8-8s-3.582-8-8-8
		C135.163,264,128,256.837,128,248z M120,274.856c-0.887-1.015-1.841-1.969-2.856-2.856c1.015-0.887,1.969-1.841,2.856-2.856
		c0.887,1.015,1.841,1.969,2.856,2.856C121.841,272.887,120.887,273.841,120,274.856z"/>
</g>
<g>
</g>
<g>
</g>
<g>
</g>
<g>
</g>
<g>
</g>
<g>
</g>
<g>
</g>
<g>
</g>
<g>
</g>
<g>
</g>
<g>
</g>
<g>
</g>
<g>
</g>
<g>
</g>
<g>
</g>
</svg>
