<svg height="512" viewBox="0 0 64 64" width="512" xmlns="http://www.w3.org/2000/svg" xmlns:xlink="http://www.w3.org/1999/xlink"><linearGradient id="New_Gradient_Swatch_5" gradientUnits="userSpaceOnUse" x1="-1" x2="62.198" y1="32" y2="32"><stop offset="0" stop-color="#4761ac"/><stop offset="1" stop-color="#54c2ef"/></linearGradient><linearGradient id="New_Gradient_Swatch_5-2" x2="62.198" xlink:href="#New_Gradient_Swatch_5" y1="44" y2="44"/><g id="Gradient_outline" data-name="Gradient outline"><path d="m61 13h-56a1 1 0 0 0 -1 1v19h-1a1 1 0 0 0 -1 1v10a1 1 0 0 0 1 1h7.08a6.991 6.991 0 0 0 13.84 0h18.16a6.991 6.991 0 0 0 13.84 0h5.08a1 1 0 0 0 1-1v-30a1 1 0 0 0 -1-1zm-35 14h-10v-8h10zm2-8h4v14h-4zm6 0h4v14h-4zm18.707 2.707 2.707-2.707h3.172l-4.293 4.293 1.414 1.414 4.293-4.293v6.586h-9.586l2.293-2.293-1.414-1.414-3.707 3.707h-2.172l5.293-5.293-1.414-1.414-6.707 6.707h-2.586v-8h12.586l-1.293 1.293zm-12.707 7.293h20v4h-20zm20-14v2h-45a1 1 0 0 0 -1 1v10a1 1 0 0 0 1 1h11v4h-14v-13a3 3 0 0 0 -3-3h-3v-2zm-54 4h3a1 1 0 0 1 1 1v13h-4zm-2 16h4v2h-4zm0 4h5a1 1 0 0 0 1-1v-3h16v8h-2.08a6.991 6.991 0 0 0 -13.84 0h-6.08zm13 10a5 5 0 1 1 5-5 5.006 5.006 0 0 1 -5 5zm11-14h4v8h-4zm6 0h4v8h-4zm15 14a5 5 0 1 1 5-5 5.006 5.006 0 0 1 -5 5zm11-6h-4.08a6.991 6.991 0 0 0 -13.84 0h-2.08v-8h20z" fill="url(#New_Gradient_Swatch_5)"/><g fill="url(#New_Gradient_Swatch_5-2)"><path d="m49 41a3 3 0 1 0 3 3 3 3 0 0 0 -3-3zm0 4a1 1 0 1 1 1-1 1 1 0 0 1 -1 1z"/><path d="m17 41a3 3 0 1 0 3 3 3 3 0 0 0 -3-3zm0 4a1 1 0 1 1 1-1 1 1 0 0 1 -1 1z"/></g></g></svg>